<?xml version="1.0" encoding="utf-8"?>
<!-- Generator: Adobe Illustrator 18.1.1, SVG Export Plug-In . SVG Version: 6.00 Build 0)  -->
<!DOCTYPE svg PUBLIC "-//W3C//DTD SVG 1.1//EN" "http://www.w3.org/Graphics/SVG/1.1/DTD/svg11.dtd">
<svg version="1.1"
	 id="svg2" xmlns:rdf="http://www.w3.org/1999/02/22-rdf-syntax-ns#" xmlns:cc="http://creativecommons.org/ns#" xmlns:svg="http://www.w3.org/2000/svg" xmlns:dc="http://purl.org/dc/elements/1.1/" xmlns:inkscape="http://www.inkscape.org/namespaces/inkscape" xmlns:sodipodi="http://sodipodi.sourceforge.net/DTD/sodipodi-0.dtd" sodipodi:docname="eye_open_font_awesome.svg" inkscape:version="0.48.3.1 r9886"
	 xmlns="http://www.w3.org/2000/svg" xmlns:xlink="http://www.w3.org/1999/xlink" x="0px" y="0px" viewBox="-50 0 500 400"
	 enable-background="new -50 0 500 400" xml:space="preserve">
<sodipodi:namedview  id="namedview8" objecttolerance="10" gridtolerance="10" bordercolor="#666666" inkscape:cy="896" showgrid="false" inkscape:cx="896" borderopacity="1" inkscape:zoom="0.13169643" guidetolerance="10" pagecolor="#ffffff" inkscape:current-layer="svg2" inkscape:window-maximized="0" inkscape:window-y="25" inkscape:window-x="0" inkscape:pageopacity="0" inkscape:window-height="480" inkscape:window-width="640" inkscape:pageshadow="2">
	</sodipodi:namedview>
<g id="g4" transform="matrix(1,0,0,-1,30.372881,1259.8983)">
	<path id="path6" inkscape:connector-curvature="0" fill="#339966" d="M336,1054.7c-21.9,34-49.4,59.5-82.4,76.3
		c8.8-15,13.2-31.2,13.2-48.6c0-26.7-9.5-49.5-28.4-68.4s-41.8-28.4-68.4-28.4s-49.5,9.5-68.4,28.4s-28.4,41.8-28.4,68.4
		c0,17.4,4.4,33.7,13.2,48.6c-33-16.9-60.5-42.3-82.4-76.3c19.2-29.5,43.2-53.1,72.1-70.6s60.2-26.3,93.9-26.3s65,8.8,93.9,26.3
		C292.8,1001.6,316.8,1025.1,336,1054.7z M180.3,1137.7c0,2.9-1,5.3-3,7.4c-2,2-4.5,3-7.4,3c-18,0-33.5-6.5-46.4-19.4
		s-19.4-28.4-19.4-46.4c0-2.9,1-5.3,3-7.4c2-2,4.5-3,7.4-3c2.9,0,5.3,1,7.4,3c2,2,3,4.5,3,7.4c0,12.4,4.4,23,13.2,31.8
		c8.8,8.8,19.4,13.2,31.8,13.2c2.9,0,5.3,1,7.4,3C179.3,1132.4,180.3,1134.8,180.3,1137.7z M363.7,1054.7c0-4.9-1.4-9.9-4.3-14.9
		c-20.2-33.2-47.3-59.7-81.4-79.7c-34.1-20-70.1-29.9-108-29.9s-73.9,10-108,30.1c-34.1,20-61.2,46.6-81.4,79.6
		c-2.9,5-4.3,10-4.3,14.9c0,4.9,1.4,9.9,4.3,14.9c20.2,33,47.3,59.5,81.4,79.6c34.1,20,70.1,30.1,108,30.1s73.9-10,108-30.1
		c34.1-20,61.2-46.6,81.4-79.6C362.2,1064.6,363.7,1059.6,363.7,1054.7z"/>
</g>
</svg>
